<!--?xml version="1.0" encoding="utf-8"?-->
<!-- Generator: Adobe Illustrator 18.1.1, SVG Export Plug-In . SVG Version: 6.00 Build 0)  -->

<svg version="1.1" id="_x31_0" xmlns="http://www.w3.org/2000/svg" xmlns:xlink="http://www.w3.org/1999/xlink" x="0px" y="0px" viewBox="0 0 512 512" style="width: 128px; height: 128px; opacity: 1;" xml:space="preserve">
<style type="text/css">
	.st0{fill:#374149;}
</style>
<g>
	<path class="st0" d="M256,0C114.614,0,0,114.617,0,256c0,141.386,114.614,256,256,256c141.383,0,256-114.614,256-256
		C512,114.617,397.383,0,256,0z M256,448c-105.871,0-192-86.129-192-192c0-105.867,86.129-192,192-192c105.867,0,192,86.133,192,192
		C448,361.871,361.867,448,256,448z" style="fill: rgb(0, 0, 0);"></path>
	<path class="st0" d="M367.082,224.547c-7.966-69.153-55.497-104.227-112.981-104.227c-15.266,0-29.797,2.547-43.11,7.477
		c-0.324,0.121-0.637,0.262-0.957,0.386c-2.852,1.086-5.652,2.27-8.383,3.582c-0.465,0.226-0.91,0.477-1.37,0.711
		c-2.602,1.301-5.153,2.683-7.633,4.195c-0.313,0.191-0.614,0.402-0.926,0.598c-2.621,1.641-5.172,3.386-7.64,5.266
		c-0.016,0.012-0.032,0.023-0.047,0.035c-23.172,17.652-39.258,45.711-43.187,84.172c-2.196,1.374-4.254,2.918-6.141,4.633
		c-18.051,16.305-18.703,45.199-1.375,64.418c7.586,8.375,17.641,13.832,28.383,15.512c-0.41,11.602,2.847,23.406,9.71,34.699
		c16.649,27.316,50.622,45.676,84.562,45.676c33.942,0,67.918-18.36,84.562-45.676c6.899-11.258,10.161-23.098,9.746-34.699
		c10.742-1.68,20.801-7.137,28.383-15.547c17.297-19.183,16.679-48.078-1.406-64.414
		C374.218,228.598,370.785,226.297,367.082,224.547z M168.098,286.871c-0.718,1.406-1.406,2.847-1.988,4.289
		c-6.317-0.683-12.629-3.774-17.469-9.164c-5.219-5.797-7.653-13.004-7.278-19.836c0.274-5.867,2.68-11.461,7.172-15.546
		c2.438-2.196,5.254-3.738,8.274-4.598c-0.035,6.898,1.305,13.762,3.98,20.144c1.684,4.086,3.91,7.996,6.692,11.602
		C171.91,279.492,171.566,280.18,168.098,286.871z M332.625,260.855c-0.277,0.45-0.586,0.895-0.926,1.305
		c-0.207,0.379-0.484,0.754-0.758,1.098c-10.602,13.73-6.863,22.618-2.297,31.473c0.754,1.477,1.406,2.95,1.988,4.426
		c1.442,3.844,2.23,7.723,2.473,11.566c1.886,32.43-37.238,63.801-77.118,63.801c-39.843,0-78.969-31.371-77.078-63.801
		c0.238-3.843,1.027-7.722,2.469-11.566c0.586-1.476,1.238-2.949,1.992-4.426c4.562-8.855,8.27-17.742-2.301-31.473
		c-0.274-0.343-0.547-0.718-0.754-1.098c-0.379-0.445-0.688-0.89-0.962-1.371c-3.5-5.422-5.214-11.461-5.351-17.504
		c-0.141-3.57,0.305-7.136,1.301-10.534c0.926-3.329,2.371-6.485,4.258-9.367c3.774-5.801,9.438-10.504,16.676-13.008
		c5.117-1.786,9.714-2.508,13.867-2.508c19.32,0,29.89,15.652,45.882,15.652c15.993,0,26.562-15.652,45.887-15.652
		c4.187,0,8.785,0.722,13.898,2.508c7.242,2.504,12.871,7.172,16.679,12.973c1.887,2.882,3.329,6.074,4.254,9.402
		c0.996,3.398,1.442,6.933,1.305,10.5C337.875,249.328,336.125,255.398,332.625,260.855z M219.301,175.438
		c-9.813,5.078-20.828,3.293-24.606-4.016c-3.774-7.273,1.098-17.332,10.914-22.41c9.816-5.078,20.832-3.262,24.606,4.015
		C233.992,160.336,229.082,170.359,219.301,175.438z M344.531,273.762c2.746-3.606,5.012-7.48,6.691-11.602
		c2.645-6.382,4.016-13.21,3.985-20.144c3.019,0.859,5.832,2.402,8.27,4.598c1.922,1.75,3.465,3.777,4.633,6.007
		c4.633,8.856,3.054,20.727-4.734,29.375c-4.84,5.39-11.157,8.481-17.504,9.164c-0.582-1.442-1.27-2.882-1.992-4.289
		C340.45,280.18,340.106,279.492,344.531,273.762z" style="fill: rgb(0, 0, 0);"></path>
	<path class="st0" d="M219.473,269.023c4.465,0,8.34-2.742,10.539-6.863c1.164-2.195,1.816-4.77,1.816-7.55
		c0-7.961-5.523-14.414-12.355-14.414c-6.793,0-12.352,6.454-12.352,14.414c0,2.781,0.684,5.355,1.852,7.55
		C211.137,266.282,215.047,269.023,219.473,269.023z M213.398,251.008c0-2.676,1.855-4.84,4.152-4.84
		c2.301,0,4.157,2.164,4.157,4.84c0,2.675-1.856,4.84-4.157,4.84C215.254,255.848,213.398,253.683,213.398,251.008z" style="fill: rgb(0, 0, 0);"></path>
	<path class="st0" d="M288.695,240.195c-6.828,0-12.355,6.454-12.355,14.414c0,2.781,0.652,5.355,1.82,7.55
		c2.195,4.122,6.074,6.863,10.535,6.863c4.461,0,8.34-2.742,10.535-6.863c1.168-2.195,1.82-4.77,1.82-7.55
		C301.05,246.649,295.523,240.195,288.695,240.195z M282.621,251.008c0-2.676,1.852-4.84,4.153-4.84s4.152,2.164,4.152,4.84
		c0,2.675-1.851,4.84-4.152,4.84S282.621,253.683,282.621,251.008z" style="fill: rgb(0, 0, 0);"></path>
	<path class="st0" d="M287.77,311.582c0,7.789-6.317,14.105-14.106,14.105c-7.207,0-13.18-5.426-14.035-12.39
		c1.68-0.926,3.191-2.336,4.254-4.222l7.277-12.594c4.356-7.551-1.102-16.989-9.781-16.989h-14.551
		c-8.718,0-14.176,9.438-9.816,16.989l7.273,12.594c1.102,1.886,2.61,3.297,4.294,4.258c-0.86,6.965-6.832,12.355-14.039,12.355
		c-7.789,0-14.137-6.316-14.137-14.105h-10.297c0,13.453,10.98,24.398,24.434,24.398c7.594,0,14.336-3.563,18.793-9.028
		c0.25-0.285,0.551-0.507,0.789-0.804c4.426,5.961,11.524,9.832,19.543,9.832c12.953,0,23.481-10.176,24.254-22.942
		c0.028-0.438,0.141-0.856,0.149-1.297h-0.016c0-0.055,0.016-0.106,0.016-0.16H287.77z M254.718,293.016
		c0,1.781-1.441,3.222-3.226,3.222c-1.781,0-3.222-1.442-3.222-3.222c0-1.786,1.442-3.227,3.222-3.227
		C253.278,289.789,254.718,291.23,254.718,293.016z" style="fill: rgb(0, 0, 0);"></path>
</g>
</svg>
